<mxfile host="Electron" agent="Mozilla/5.0 (X11; Linux x86_64) AppleWebKit/537.36 (KHTML, like Gecko) draw.io/24.7.17 Chrome/128.0.6613.36 Electron/32.0.1 Safari/537.36" version="24.7.17">
  <diagram name="Страница — 1" id="OxUshxZnZfBiJAVDCdNr">
    <mxGraphModel dx="1434" dy="848" grid="1" gridSize="10" guides="1" tooltips="1" connect="1" arrows="1" fold="1" page="1" pageScale="1" pageWidth="827" pageHeight="1169" math="0" shadow="0">
      <root>
        <mxCell id="0" />
        <mxCell id="1" parent="0" />
        <mxCell id="DEZMkkyd13aNj0rDAgvl-1" value="Книжный клуб" style="swimlane;whiteSpace=wrap;html=1;" vertex="1" parent="1">
          <mxGeometry x="210" y="190" width="960" height="600" as="geometry" />
        </mxCell>
        <mxCell id="DEZMkkyd13aNj0rDAgvl-3" value="&lt;div&gt;Просмотр товаров&lt;/div&gt;" style="ellipse;whiteSpace=wrap;html=1;" vertex="1" parent="DEZMkkyd13aNj0rDAgvl-1">
          <mxGeometry x="50" y="30" width="120" height="80" as="geometry" />
        </mxCell>
        <mxCell id="DEZMkkyd13aNj0rDAgvl-8" value="Формирование заказа" style="ellipse;whiteSpace=wrap;html=1;" vertex="1" parent="DEZMkkyd13aNj0rDAgvl-1">
          <mxGeometry x="50" y="160" width="120" height="80" as="geometry" />
        </mxCell>
        <mxCell id="DEZMkkyd13aNj0rDAgvl-10" value="Формировать заказы" style="ellipse;whiteSpace=wrap;html=1;" vertex="1" parent="DEZMkkyd13aNj0rDAgvl-1">
          <mxGeometry x="64" y="360" width="120" height="80" as="geometry" />
        </mxCell>
        <mxCell id="DEZMkkyd13aNj0rDAgvl-11" value="Остваить отзыв" style="ellipse;whiteSpace=wrap;html=1;" vertex="1" parent="DEZMkkyd13aNj0rDAgvl-1">
          <mxGeometry x="200" y="40" width="120" height="80" as="geometry" />
        </mxCell>
        <mxCell id="DEZMkkyd13aNj0rDAgvl-14" value="Просмотр товаров" style="ellipse;whiteSpace=wrap;html=1;" vertex="1" parent="DEZMkkyd13aNj0rDAgvl-1">
          <mxGeometry x="60" y="480" width="120" height="80" as="geometry" />
        </mxCell>
        <mxCell id="DEZMkkyd13aNj0rDAgvl-17" value="Добавление товаров" style="ellipse;whiteSpace=wrap;html=1;" vertex="1" parent="DEZMkkyd13aNj0rDAgvl-1">
          <mxGeometry x="680" y="40" width="120" height="80" as="geometry" />
        </mxCell>
        <mxCell id="DEZMkkyd13aNj0rDAgvl-18" value="Редактирование товаров" style="ellipse;whiteSpace=wrap;html=1;" vertex="1" parent="DEZMkkyd13aNj0rDAgvl-1">
          <mxGeometry x="680" y="140" width="120" height="80" as="geometry" />
        </mxCell>
        <mxCell id="DEZMkkyd13aNj0rDAgvl-19" value="Удаление товаров" style="ellipse;whiteSpace=wrap;html=1;" vertex="1" parent="DEZMkkyd13aNj0rDAgvl-1">
          <mxGeometry x="670" y="250" width="120" height="80" as="geometry" />
        </mxCell>
        <mxCell id="DEZMkkyd13aNj0rDAgvl-24" value="Выбор пунтка выдачи" style="ellipse;whiteSpace=wrap;html=1;" vertex="1" parent="DEZMkkyd13aNj0rDAgvl-1">
          <mxGeometry x="240" y="150" width="120" height="80" as="geometry" />
        </mxCell>
        <mxCell id="DEZMkkyd13aNj0rDAgvl-26" value="Редактировать заказы" style="ellipse;whiteSpace=wrap;html=1;" vertex="1" parent="DEZMkkyd13aNj0rDAgvl-1">
          <mxGeometry x="270" y="355" width="120" height="80" as="geometry" />
        </mxCell>
        <mxCell id="DEZMkkyd13aNj0rDAgvl-37" value="" style="endArrow=classic;html=1;rounded=0;dashed=1;" edge="1" parent="DEZMkkyd13aNj0rDAgvl-1" source="DEZMkkyd13aNj0rDAgvl-10" target="DEZMkkyd13aNj0rDAgvl-26">
          <mxGeometry relative="1" as="geometry">
            <mxPoint x="140" y="300" as="sourcePoint" />
            <mxPoint x="240" y="300" as="targetPoint" />
          </mxGeometry>
        </mxCell>
        <mxCell id="DEZMkkyd13aNj0rDAgvl-38" value="Extend" style="edgeLabel;resizable=0;html=1;;align=center;verticalAlign=middle;" connectable="0" vertex="1" parent="DEZMkkyd13aNj0rDAgvl-37">
          <mxGeometry relative="1" as="geometry" />
        </mxCell>
        <mxCell id="DEZMkkyd13aNj0rDAgvl-7" style="edgeStyle=orthogonalEdgeStyle;rounded=0;orthogonalLoop=1;jettySize=auto;html=1;exitX=0.5;exitY=0.5;exitDx=0;exitDy=0;exitPerimeter=0;" edge="1" parent="1" source="DEZMkkyd13aNj0rDAgvl-2" target="DEZMkkyd13aNj0rDAgvl-3">
          <mxGeometry relative="1" as="geometry" />
        </mxCell>
        <mxCell id="DEZMkkyd13aNj0rDAgvl-9" style="edgeStyle=orthogonalEdgeStyle;rounded=0;orthogonalLoop=1;jettySize=auto;html=1;exitX=0.5;exitY=0.5;exitDx=0;exitDy=0;exitPerimeter=0;" edge="1" parent="1" source="DEZMkkyd13aNj0rDAgvl-2" target="DEZMkkyd13aNj0rDAgvl-8">
          <mxGeometry relative="1" as="geometry" />
        </mxCell>
        <mxCell id="DEZMkkyd13aNj0rDAgvl-12" style="edgeStyle=orthogonalEdgeStyle;rounded=0;orthogonalLoop=1;jettySize=auto;html=1;exitX=0.5;exitY=0.5;exitDx=0;exitDy=0;exitPerimeter=0;" edge="1" parent="1" source="DEZMkkyd13aNj0rDAgvl-2" target="DEZMkkyd13aNj0rDAgvl-11">
          <mxGeometry relative="1" as="geometry">
            <Array as="points">
              <mxPoint x="410" y="310" />
              <mxPoint x="410" y="270" />
            </Array>
          </mxGeometry>
        </mxCell>
        <mxCell id="DEZMkkyd13aNj0rDAgvl-25" style="edgeStyle=orthogonalEdgeStyle;rounded=0;orthogonalLoop=1;jettySize=auto;html=1;exitX=0.5;exitY=0.5;exitDx=0;exitDy=0;exitPerimeter=0;" edge="1" parent="1" source="DEZMkkyd13aNj0rDAgvl-2" target="DEZMkkyd13aNj0rDAgvl-24">
          <mxGeometry relative="1" as="geometry">
            <Array as="points">
              <mxPoint x="400" y="310" />
              <mxPoint x="400" y="380" />
            </Array>
          </mxGeometry>
        </mxCell>
        <mxCell id="DEZMkkyd13aNj0rDAgvl-2" value="Клиент&lt;div&gt;&lt;br&gt;&lt;/div&gt;" style="shape=umlActor;verticalLabelPosition=bottom;verticalAlign=top;html=1;outlineConnect=0;" vertex="1" parent="1">
          <mxGeometry x="150" y="280" width="30" height="60" as="geometry" />
        </mxCell>
        <mxCell id="DEZMkkyd13aNj0rDAgvl-13" style="edgeStyle=orthogonalEdgeStyle;rounded=0;orthogonalLoop=1;jettySize=auto;html=1;exitX=0.5;exitY=0.5;exitDx=0;exitDy=0;exitPerimeter=0;" edge="1" parent="1" source="DEZMkkyd13aNj0rDAgvl-4" target="DEZMkkyd13aNj0rDAgvl-10">
          <mxGeometry relative="1" as="geometry" />
        </mxCell>
        <mxCell id="DEZMkkyd13aNj0rDAgvl-16" style="edgeStyle=orthogonalEdgeStyle;rounded=0;orthogonalLoop=1;jettySize=auto;html=1;exitX=0.5;exitY=0.5;exitDx=0;exitDy=0;exitPerimeter=0;" edge="1" parent="1" source="DEZMkkyd13aNj0rDAgvl-4" target="DEZMkkyd13aNj0rDAgvl-14">
          <mxGeometry relative="1" as="geometry">
            <Array as="points">
              <mxPoint x="280" y="600" />
              <mxPoint x="280" y="710" />
            </Array>
          </mxGeometry>
        </mxCell>
        <mxCell id="DEZMkkyd13aNj0rDAgvl-4" value="Менеджер" style="shape=umlActor;verticalLabelPosition=bottom;verticalAlign=top;html=1;outlineConnect=0;" vertex="1" parent="1">
          <mxGeometry x="160" y="570" width="30" height="60" as="geometry" />
        </mxCell>
        <mxCell id="DEZMkkyd13aNj0rDAgvl-20" style="edgeStyle=orthogonalEdgeStyle;rounded=0;orthogonalLoop=1;jettySize=auto;html=1;exitX=0.5;exitY=0.5;exitDx=0;exitDy=0;exitPerimeter=0;" edge="1" parent="1" source="DEZMkkyd13aNj0rDAgvl-6" target="DEZMkkyd13aNj0rDAgvl-17">
          <mxGeometry relative="1" as="geometry" />
        </mxCell>
        <mxCell id="DEZMkkyd13aNj0rDAgvl-21" style="edgeStyle=orthogonalEdgeStyle;rounded=0;orthogonalLoop=1;jettySize=auto;html=1;exitX=0.5;exitY=0.5;exitDx=0;exitDy=0;exitPerimeter=0;" edge="1" parent="1" source="DEZMkkyd13aNj0rDAgvl-6" target="DEZMkkyd13aNj0rDAgvl-18">
          <mxGeometry relative="1" as="geometry" />
        </mxCell>
        <mxCell id="DEZMkkyd13aNj0rDAgvl-22" style="edgeStyle=orthogonalEdgeStyle;rounded=0;orthogonalLoop=1;jettySize=auto;html=1;exitX=0.5;exitY=0.5;exitDx=0;exitDy=0;exitPerimeter=0;" edge="1" parent="1" source="DEZMkkyd13aNj0rDAgvl-6" target="DEZMkkyd13aNj0rDAgvl-19">
          <mxGeometry relative="1" as="geometry">
            <Array as="points">
              <mxPoint x="1110" y="300" />
              <mxPoint x="1110" y="480" />
            </Array>
          </mxGeometry>
        </mxCell>
        <mxCell id="DEZMkkyd13aNj0rDAgvl-6" value="Администратор" style="shape=umlActor;verticalLabelPosition=bottom;verticalAlign=top;html=1;outlineConnect=0;" vertex="1" parent="1">
          <mxGeometry x="1190" y="270" width="30" height="60" as="geometry" />
        </mxCell>
      </root>
    </mxGraphModel>
  </diagram>
</mxfile>
